<svg width="569" height="595" viewBox="0 0 569 595" fill="none" xmlns="http://www.w3.org/2000/svg">
<g clip-path="url(#clip0_54_171)">
<path d="M556.349 11.9217C558.125 11.9334 558.125 11.9334 559.924 11.9451C562.81 11.9568 565.696 11.9801 568.582 12.0035C568.64 54.6822 568.675 97.3609 568.699 140.04C568.71 145.09 568.71 150.14 568.71 155.19C568.71 156.698 568.71 156.698 568.71 158.229C568.722 174.466 568.745 190.703 568.769 206.928C568.792 223.609 568.804 240.29 568.804 256.971C568.804 267.246 568.815 277.521 568.839 287.796C568.85 294.869 568.85 301.929 568.85 308.99C568.85 313.058 568.85 317.126 568.862 321.182C568.909 337.91 568.687 354.31 566.245 370.874C566.058 372.184 566.058 372.184 565.859 373.516C559.352 417.598 539.84 459.54 511.331 493.615C510.747 494.316 510.163 495.018 509.567 495.754C465.905 548.112 405.876 576.01 339.802 591.001C338.902 591.188 338.002 591.375 337.079 591.574C325.816 593.783 314.506 594.332 303.044 594.379C301.818 594.391 300.603 594.391 299.341 594.403C296.77 594.414 294.2 594.426 291.629 594.426C287.785 594.438 283.942 594.473 280.086 594.508C260.434 594.613 241.342 593.152 222.333 587.915C219.202 587.12 216.152 586.676 212.963 586.255C174.219 580.235 133.63 559.275 103.567 534.529C102.481 533.652 101.382 532.775 100.261 531.863C82.3496 517.275 66.5882 500.851 53.3271 481.925C52.7779 481.142 52.2288 480.359 51.668 479.552C36.0818 457.12 24.7836 432.888 15.939 407.112C15.6352 406.259 15.3431 405.405 15.0277 404.517C11.5225 394.534 9.09227 384.423 6.88404 374.089C6.63868 372.943 6.3933 371.798 6.13626 370.605C2.68955 353.691 2.93493 336.823 2.98166 319.639C2.98166 317.067 2.98166 314.495 2.98166 311.912C2.98166 305.179 2.99334 298.446 3.00502 291.712C3.0167 284.827 3.02841 277.942 3.02841 271.057C3.0401 257.567 3.06344 244.089 3.08681 230.599C8.97543 230.564 14.8641 230.541 20.7527 230.517C22.7506 230.517 24.7486 230.506 26.7465 230.494C42.4962 230.389 57.6618 231.277 73.1895 234.106C74.206 234.281 75.2225 234.457 76.2623 234.632C121.186 242.464 165.55 264.183 192.691 302.116C213.699 333.234 219.681 364.702 219.833 401.7C219.961 422.425 222.707 440.521 230.921 459.715C231.458 460.954 231.984 462.193 232.521 463.479C241.342 482.487 257.887 501.903 277.656 509.98C288.849 507.771 298.92 493.814 305.171 484.813C316.703 467.407 323.421 447.09 323.386 426.119C323.386 425.231 323.398 424.331 323.398 423.419C323.409 420.45 323.409 417.481 323.409 414.512C323.421 412.384 323.421 410.245 323.433 408.106C323.444 403.523 323.456 398.929 323.456 394.335C323.468 387.053 323.491 379.782 323.526 372.499C323.596 351.809 323.655 331.106 323.69 310.416C323.713 298.972 323.748 287.539 323.795 276.107C323.818 270.075 323.842 264.032 323.842 257.988C323.842 252.295 323.865 246.602 323.9 240.909C323.9 238.829 323.9 236.76 323.9 234.679C323.818 182.66 346.52 135.797 380.473 97.3375C381.01 96.7296 381.536 96.1218 382.085 95.5022C418.983 53.6535 469.059 27.7728 523.015 15.5104C524.347 15.1948 524.347 15.1948 525.702 14.8792C535.996 12.5179 545.81 11.8165 556.349 11.9217Z" fill="#0B4B46"/>
<path d="M3.09349 230.62C8.97927 230.585 14.865 230.562 20.7508 230.539C22.7477 230.539 24.7447 230.527 26.73 230.515C42.4837 230.41 57.6419 231.301 73.1622 234.14C74.1782 234.315 75.1941 234.492 76.2335 234.667C121.125 242.526 165.684 264.232 192.801 302.295C213.809 333.52 219.688 365.221 219.84 402.346C219.969 423.143 222.99 441.19 231.199 460.45C231.725 461.694 232.256 462.98 232.804 464.258C242.707 485.7 259.774 499.125 279.557 511.136C254.73 531.887 222.164 546.784 193.482 561.34C190.177 563.017 186.883 564.741 183.614 566.479C181.92 567.358 180.239 568.226 178.557 569.105C177.377 569.739 177.377 569.739 176.187 570.384C170.744 573.199 170.744 573.199 167.404 572.859C166.751 572.565 166.097 572.26 165.419 571.956C164.018 571.451 164.018 571.451 162.593 570.924C141.21 562.208 121.347 550.326 103.525 535.593C102.427 534.714 101.341 533.834 100.209 532.919C82.3061 518.28 66.564 501.8 53.3093 482.81C52.4802 481.637 52.4802 481.637 51.6394 480.429C36.0725 457.92 24.7798 433.604 15.9395 407.74C15.6358 406.883 15.3321 406.027 15.0285 405.135C11.5134 395.119 9.09605 384.972 6.88887 374.603C6.64364 373.453 6.3984 372.304 6.14148 371.108C2.69643 354.135 2.94167 337.208 2.97671 319.966C2.97671 317.385 2.98839 314.805 2.98839 312.212C2.98839 305.456 3.00007 298.701 3.01174 291.944C3.02343 285.035 3.0351 278.126 3.0351 271.217C3.04678 257.682 3.07014 244.157 3.09349 230.62Z" fill="#75A981"/>
<path d="M132.649 6.06686C133.397 6.39417 134.145 6.72148 134.904 7.06047C162.291 19.2761 181.137 38.5756 192.318 66.467C200.275 94.9896 196.817 122.659 182.481 148.212C178.602 154.84 174.127 160.592 168.869 166.214C168.168 167.021 167.467 167.827 166.754 168.657C151.028 185.806 126.994 197.075 103.919 198.15C78.2033 198.875 53.9945 193.381 34.5059 175.566C33.4778 174.642 32.4496 173.719 31.3864 172.772C15.4847 157.751 6.38313 139.644 1.7914 118.287C1.56941 117.41 1.3591 116.545 1.13711 115.645C-2.98726 89.8228 4.3852 64.6434 18.7562 43.158C27.8111 30.9306 38.6654 20.4217 52.0316 13.0806C52.9897 12.5429 53.9477 12.0052 54.9409 11.4558C77.4321 -0.467624 108.885 -4.4187 132.649 6.06686Z" fill="#FCBF2F"/>
<path d="M277.497 510.241C317.806 514.917 358.937 555.588 396.364 574.04C390.803 577.945 384.868 579.955 378.419 581.813C376.596 582.339 376.596 582.339 374.738 582.877C364.83 585.659 354.841 587.962 344.758 590.066C343.356 590.358 341.954 590.651 340.517 590.954C327.921 593.491 315.583 594.485 302.743 594.543C300.909 594.555 300.909 594.555 299.039 594.555C296.469 594.567 293.898 594.578 291.328 594.578C287.484 594.59 283.628 594.637 279.784 594.672C260.132 594.765 241.041 593.316 222.02 588.067C218.9 587.284 215.851 586.828 212.649 586.407C198.045 584.139 181.154 578.511 167.39 573.215C207.426 556.867 248.171 521.93 277.497 510.241Z" fill="#0A3538"/>
</g>
<defs>
<clipPath id="clip0_54_171">
<rect width="569" height="595" fill="white"/>
</clipPath>
</defs>
</svg>
